<svg xmlns="http://www.w3.org/2000/svg" width="55" height="65" viewBox="0 0 512 512"><path fill-rule="evenodd" clip-rule="evenodd" d="M181.333 0H74.667c-17.643 0-32 14.357-32 32v448c0 17.643 14.357 32 32 32h106.667c17.643 0 32-14.357 32-32V32c-.001-17.643-14.358-32-32.001-32zM192 480c0 5.867-4.779 10.667-10.667 10.667H74.667C68.779 490.667 64 485.867 64 480V32c0-5.867 4.779-10.667 10.667-10.667h106.667c5.888 0 10.667 4.8 10.667 10.667v448zM437.333 0H330.667c-17.643 0-32 14.357-32 32v448c0 17.643 14.357 32 32 32h106.667c17.643 0 32-14.357 32-32V32c-.001-17.643-14.358-32-32.001-32zM448 480c0 5.867-4.779 10.667-10.667 10.667H330.667c-5.888 0-10.667-4.8-10.667-10.667V32c0-5.867 4.779-10.667 10.667-10.667h106.667c5.888 0 10.667 4.8 10.667 10.667v448z" fill="#fff"/></svg>